# xmcd
#
# Track frame offsets:
#        150
#        6255
#        23122
#        49105
#        78322
#        98920
#        101887
#        125052
#        138710
#        141065
#        169497
#        192235
#
# Disc length: 2909 seconds
#
# Revision: 0
# Processed by: cddbd v1.5.1PL2 Copyright (c) Steve Scherf et al.
# Submitted via: ExactAudioCopy v0.95a5
#
DISCID=ab0b5b0c
DTITLE=Audio Caviar - Transoceanic
DYEAR=2005
DGENRE=Jazz
TTITLE0=Transoceanic Prayer
TTITLE1=Hookline
TTITLE2=Now That I've Found You
TTITLE3=Jodie
TTITLE4=5th House
TTITLE5=Serengeti Sunset (Interlude)
TTITLE6=Tel Aviv
TTITLE7=Legends of Ratava (special guest Jonathan Butler)
TTITLE8=Sophie's Theme (Interlude)
TTITLE9=The Island (special guest George Duke)
TTITLE10=Dominique (special guest Philip Bailey)
TTITLE11=Love Comes in Time  (special guest Howard Hewett)
EXTD=
EXTT0=
EXTT1=
EXTT2=
EXTT3=
EXTT4=
EXTT5=
EXTT6=
EXTT7=
EXTT8=
EXTT9=
EXTT10=
EXTT11=
PLAYORDER=
